<svg class="cb-icon cb-icon-svg cb-icon--sm" aria-hidden="true"><use xlink:href="#friends"></use></svg><svg viewBox="0 0 24 24" id="friends" xmlns="http://www.w3.org/2000/svg"><path fill="none" d="M0 0h24v24H0z"></path><path fill="currentColor" d="M19.07 16.94a2.08 2.08 0 0 0-2.34-.29 3.57 3.57 0 0 1-1.72.43 3.73 3.73 0 0 1-1.76-.44 2.17 2.17 0 0 0-2.46.32A5.46 5.46 0 0 0 9 21h11.88a5.47 5.47 0 0 0-1.81-4.06z"></path><circle fill="currentColor" cx="15.06" cy="12.23" r="3.23"></circle><circle fill="currentColor" cx="8.06" cy="6.23" r="3.23"></circle><path fill="currentColor" d="M10.52 14.77a5.26 5.26 0 0 1-.69-2.54 5.28 5.28 0 0 1 .31-1.72 2 2 0 0 0-.41.14 3.5 3.5 0 0 1-1.73.43 3.73 3.73 0 0 1-1.76-.44 2.16 2.16 0 0 0-2.45.36A5.47 5.47 0 0 0 2 15h8.1zM23 5h-2V3h-2v2h-2v2h2v2h2V7h2V5z"></path></svg>